<mxfile host="app.diagrams.net" modified="2024-03-16T10:56:55.531Z" agent="Mozilla/5.0 (Windows NT 10.0; Win64; x64) AppleWebKit/537.36 (KHTML, like Gecko) Chrome/122.0.0.0 Safari/537.36" etag="szXsfLfOZUdrQhQb-_1p" version="24.0.0" type="github">
  <diagram name="Page-1" id="e3a06f82-3646-2815-327d-82caf3d4e204">
    <mxGraphModel dx="1762" dy="796" grid="1" gridSize="10" guides="1" tooltips="1" connect="1" arrows="1" fold="1" page="1" pageScale="1.5" pageWidth="1169" pageHeight="826" background="none" math="0" shadow="0">
      <root>
        <mxCell id="0" style=";html=1;" />
        <mxCell id="1" style=";html=1;" parent="0" />
        <mxCell id="6a7d8f32e03d9370-61" value="&lt;font style=&quot;font-size: 18px;&quot;&gt;配料车间&lt;/font&gt;" style="whiteSpace=wrap;html=1;fillColor=#f8cecc;fontSize=14;strokeColor=none;verticalAlign=top;" parent="1" vertex="1">
          <mxGeometry x="40" y="401.5" width="493" height="222" as="geometry" />
        </mxCell>
        <mxCell id="6a7d8f32e03d9370-60" value="&lt;font style=&quot;font-size: 18px;&quot;&gt;生产车间&lt;/font&gt;" style="whiteSpace=wrap;html=1;fillColor=#d5e8d4;fontSize=14;strokeColor=none;verticalAlign=top;" parent="1" vertex="1">
          <mxGeometry x="660" y="401.5" width="570" height="218.5" as="geometry" />
        </mxCell>
        <mxCell id="6a7d8f32e03d9370-57" value="&lt;font style=&quot;font-size: 18px;&quot;&gt;客户机房&lt;/font&gt;" style="whiteSpace=wrap;html=1;fillColor=#FFD470;gradientColor=none;fontSize=14;strokeColor=none;verticalAlign=top;" parent="1" vertex="1">
          <mxGeometry x="335.5" y="98" width="423.5" height="202" as="geometry" />
        </mxCell>
        <mxCell id="6a7d8f32e03d9370-5" value="&lt;font style=&quot;font-size: 18px;&quot;&gt;ERP&lt;/font&gt;" style="verticalLabelPosition=bottom;aspect=fixed;html=1;verticalAlign=top;strokeColor=none;shape=mxgraph.citrix.desktop;fillColor=#66B2FF;gradientColor=#0066CC;fontSize=14;" parent="1" vertex="1">
          <mxGeometry x="362.00000000000006" y="156.00000000000006" width="89" height="98" as="geometry" />
        </mxCell>
        <mxCell id="6a7d8f32e03d9370-26" value="" style="verticalLabelPosition=bottom;aspect=fixed;html=1;verticalAlign=top;strokeColor=none;shape=mxgraph.citrix.switch;fillColor=#66B2FF;gradientColor=#0066CC;fontSize=14;" parent="1" vertex="1">
          <mxGeometry x="80" y="545.5" width="92" height="41.5" as="geometry" />
        </mxCell>
        <mxCell id="6a7d8f32e03d9370-28" value="&lt;font style=&quot;font-size: 18px;&quot;&gt;配料电子称&lt;/font&gt;" style="verticalLabelPosition=top;aspect=fixed;html=1;verticalAlign=bottom;strokeColor=none;shape=mxgraph.citrix.thin_client;fillColor=#66B2FF;gradientColor=#0066CC;fontSize=14;labelPosition=center;align=center;" parent="1" vertex="1">
          <mxGeometry x="119" y="490.5" width="71" height="71" as="geometry" />
        </mxCell>
        <mxCell id="Wjt1tARvmgyVRFmEkP4L-3" value="&lt;font style=&quot;font-size: 18px;&quot;&gt;MES&lt;/font&gt;" style="verticalLabelPosition=bottom;aspect=fixed;html=1;verticalAlign=top;strokeColor=none;shape=mxgraph.citrix.desktop;fillColor=#66B2FF;gradientColor=#0066CC;fontSize=14;" vertex="1" parent="1">
          <mxGeometry x="650" y="140.00000000000006" width="89" height="98" as="geometry" />
        </mxCell>
        <mxCell id="Wjt1tARvmgyVRFmEkP4L-4" value="" style="endArrow=classic;startArrow=classic;html=1;rounded=0;exitX=0.96;exitY=0.447;exitDx=0;exitDy=0;exitPerimeter=0;entryX=-0.028;entryY=0.599;entryDx=0;entryDy=0;entryPerimeter=0;" edge="1" parent="1" source="6a7d8f32e03d9370-5" target="Wjt1tARvmgyVRFmEkP4L-3">
          <mxGeometry width="50" height="50" relative="1" as="geometry">
            <mxPoint x="550" y="210" as="sourcePoint" />
            <mxPoint x="600" y="160" as="targetPoint" />
          </mxGeometry>
        </mxCell>
        <mxCell id="Wjt1tARvmgyVRFmEkP4L-6" value="" style="verticalLabelPosition=bottom;aspect=fixed;html=1;verticalAlign=top;strokeColor=none;shape=mxgraph.citrix.switch;fillColor=#66B2FF;gradientColor=#0066CC;fontSize=14;" vertex="1" parent="1">
          <mxGeometry x="335.5" y="553" width="92" height="41.5" as="geometry" />
        </mxCell>
        <mxCell id="Wjt1tARvmgyVRFmEkP4L-7" value="&lt;font style=&quot;font-size: 18px;&quot;&gt;分装电子称&lt;/font&gt;" style="verticalLabelPosition=top;aspect=fixed;html=1;verticalAlign=bottom;strokeColor=none;shape=mxgraph.citrix.thin_client;fillColor=#66B2FF;gradientColor=#0066CC;fontSize=14;labelPosition=center;align=center;" vertex="1" parent="1">
          <mxGeometry x="374.5" y="498" width="71" height="71" as="geometry" />
        </mxCell>
        <mxCell id="Wjt1tARvmgyVRFmEkP4L-8" value="&lt;font style=&quot;font-size: 18px;&quot;&gt;大屏看板&lt;/font&gt;" style="verticalLabelPosition=bottom;sketch=0;aspect=fixed;html=1;verticalAlign=top;strokeColor=none;align=center;outlineConnect=0;shape=mxgraph.citrix.tablet_1;" vertex="1" parent="1">
          <mxGeometry x="1140" y="486" width="61" height="79" as="geometry" />
        </mxCell>
        <mxCell id="Wjt1tARvmgyVRFmEkP4L-9" value="&lt;font style=&quot;font-size: 18px;&quot;&gt;机台1&lt;/font&gt;" style="verticalLabelPosition=bottom;sketch=0;aspect=fixed;html=1;verticalAlign=top;strokeColor=none;align=center;outlineConnect=0;shape=mxgraph.citrix.kiosk;" vertex="1" parent="1">
          <mxGeometry x="694" y="490" width="65" height="85" as="geometry" />
        </mxCell>
        <mxCell id="Wjt1tARvmgyVRFmEkP4L-10" value="&lt;font style=&quot;font-size: 18px;&quot;&gt;机台2&lt;/font&gt;" style="verticalLabelPosition=bottom;sketch=0;aspect=fixed;html=1;verticalAlign=top;strokeColor=none;align=center;outlineConnect=0;shape=mxgraph.citrix.kiosk;" vertex="1" parent="1">
          <mxGeometry x="812" y="491" width="65" height="85" as="geometry" />
        </mxCell>
        <mxCell id="Wjt1tARvmgyVRFmEkP4L-11" value="&lt;font style=&quot;font-size: 18px;&quot;&gt;机台3&lt;/font&gt;" style="verticalLabelPosition=bottom;sketch=0;aspect=fixed;html=1;verticalAlign=top;strokeColor=none;align=center;outlineConnect=0;shape=mxgraph.citrix.kiosk;" vertex="1" parent="1">
          <mxGeometry x="927" y="491" width="65" height="85" as="geometry" />
        </mxCell>
        <mxCell id="Wjt1tARvmgyVRFmEkP4L-12" value="" style="shape=flexArrow;endArrow=classic;startArrow=classic;html=1;rounded=0;" edge="1" parent="1">
          <mxGeometry width="100" height="100" relative="1" as="geometry">
            <mxPoint x="370" y="400" as="sourcePoint" />
            <mxPoint x="470" y="300" as="targetPoint" />
          </mxGeometry>
        </mxCell>
        <mxCell id="Wjt1tARvmgyVRFmEkP4L-13" value="" style="shape=flexArrow;endArrow=classic;startArrow=classic;html=1;rounded=0;" edge="1" parent="1">
          <mxGeometry width="100" height="100" relative="1" as="geometry">
            <mxPoint x="600" y="300" as="sourcePoint" />
            <mxPoint x="710" y="400" as="targetPoint" />
          </mxGeometry>
        </mxCell>
      </root>
    </mxGraphModel>
  </diagram>
</mxfile>
